HIERARCHY
ROOT Elbow
{
	OFFSET	0.00	0.00	0.00
	CHANNELS 6 Xposition Yposition Zposition Zrotation Xrotation Yrotation
	JOINT L_Wrist
	{
		OFFSET	 0.208349	 0.000000	 0.000000
		CHANNELS 3 Zrotation Xrotation Yrotation
		JOINT L_index_Proximal
		{
			OFFSET	 0.093499	 0.010637	-0.002083
			CHANNELS 3 Zrotation Xrotation Yrotation
			JOINT L_index_b
			{
				OFFSET	 0.033152	 0.000000	 0.000000
				CHANNELS 3 Zrotation Xrotation Yrotation
				JOINT L_index_c
				{
					OFFSET	 0.018651	 0.000000	 0.000000
					CHANNELS 3 Zrotation Xrotation Yrotation
					End Site
					{
						OFFSET	 0.018651	 0.000000	 0.000000
					}
				}
			}
		}
		JOINT L_middle_Proximal
		{
			OFFSET	 0.090632	-0.006115	-0.003750
			CHANNELS 3 Zrotation Xrotation Yrotation
			JOINT L_middle_b
			{
				OFFSET	 0.037195	 0.000000	 0.000000
				CHANNELS 3 Zrotation Xrotation Yrotation
				JOINT L_middle_c
				{
					OFFSET	 0.021943	 0.000000	 0.000000
					CHANNELS 3 Zrotation Xrotation Yrotation
					End Site
					{
						OFFSET	 0.021943	 0.000000	 0.000000
					}
				}
			}
		}
		JOINT L_pinky_Proximal
		{
			OFFSET	 0.074015	-0.035449	-0.000417
			CHANNELS 3 Zrotation Xrotation Yrotation
			JOINT L_pinky_b
			{
				OFFSET	 0.027285	 0.000000	 0.000000
				CHANNELS 3 Zrotation Xrotation Yrotation
				JOINT L_pinky_c
				{
					OFFSET	 0.015093	 0.000000	 0.000000
					CHANNELS 3 Zrotation Xrotation Yrotation
					End Site
					{
						OFFSET	 0.015093	 0.000000	 0.000000
					}
				}
			}
		}
		JOINT L_ring_Proximal
		{
			OFFSET	 0.082801	-0.021859	-0.003750
			CHANNELS 3 Zrotation Xrotation Yrotation
			JOINT L_ring_b
			{
				OFFSET	 0.034478	 0.000000	 0.000000
				CHANNELS 3 Zrotation Xrotation Yrotation
				JOINT L_ring_c
				{
					OFFSET	 0.021377	 0.000000	 0.000000
					CHANNELS 3 Zrotation Xrotation Yrotation
					End Site
					{
						OFFSET	 0.021377	 0.000000	 0.000000
					}
				}
			}
		}
		JOINT L_thumb_Proximal
		{
			OFFSET	 0.030306	 0.018528	 0.004584
			CHANNELS 3 Zrotation Xrotation Yrotation
			JOINT L_thumb_a
			{
				OFFSET	 0.038520	 0.000000	 0.000000
				CHANNELS 3 Zrotation Xrotation Yrotation
				JOINT L_thumb_b
				{
					OFFSET	 0.026310	 0.000000	 0.000000
					CHANNELS 3 Zrotation Xrotation Yrotation
					End Site
					{
						OFFSET	 0.026310	 0.000000	 0.000000
					}
				}
			}
		}
	}
}
MOTION
Frames:    12
Frame Time: 0.01666667
 0.137872	-0.078023	 0.769267	 100.612200	 18.654860	 46.243900	 10.744860	 1.278593	 7.271971	-1.628999	 0.138848	-3.288671	-4.488633	 0.395700	-10.070770	-3.352116	 0.153853	-5.254239	-14.378810	-7.811824	-8.750158	-1.009888	 0.073093	-8.278792	-4.400706	 0.184922	-4.809789	-31.346330	-15.531760	-87.993210	-1.214321	 0.948397	-75.979890	-0.825007	 0.256472	-34.538170	-20.584350	-9.464498	-87.489480	 2.041100	-1.880414	-85.306120	 0.440901	-0.109897	-27.992120	 68.612680	 55.363390	-31.183210	-1.442320	-0.096626	 7.666349	-0.132560	 0.000464	-0.410128
 0.137916	-0.077868	 0.769088	 100.706700	 18.559760	 46.219730	 10.694090	 1.271930	 7.233875	-1.634674	 0.137506	-3.184830	-4.455879	 0.390677	-10.016350	-3.324298	 0.151967	-5.233334	-14.463840	-7.805485	-8.614907	-1.021631	 0.073546	-8.234266	-4.322630	 0.180147	-4.770760	-31.350070	-15.540750	-87.833770	-1.174498	 0.916928	-75.957530	-0.730232	 0.227196	-34.563750	-20.556310	-9.502401	-87.315880	 2.061493	-1.897399	-85.251720	 0.471347	-0.117829	-28.070170	 68.527460	 55.479780	-30.857920	-1.456502	-0.097334	 7.646614	-0.113406	 0.000398	-0.407029
 0.137958	-0.077789	 0.768902	 100.764400	 18.506550	 46.212960	 10.656710	 1.267684	 7.209568	-1.642807	 0.135752	-3.112712	-4.412927	 0.386566	-10.007540	-3.300441	 0.150774	-5.229760	-14.519980	-7.803075	-8.516588	-1.004882	 0.072594	-8.263431	-4.278493	 0.178204	-4.767985	-31.347920	-15.550140	-87.768470	-1.166438	 0.911163	-75.989690	-0.718305	 0.223511	-34.569170	-20.531240	-9.537391	-87.161050	 2.084000	-1.916635	-85.208070	 0.519411	-0.130227	-28.149330	 68.367520	 55.615040	-30.511960	-1.508196	-0.101387	 7.691793	-0.099311	 0.000291	-0.339742
 0.138016	-0.077729	 0.768688	 100.826600	 18.450230	 46.207720	 10.620750	 1.266103	 7.200536	-1.624088	 0.134277	-3.138830	-4.391481	 0.384604	-10.005490	-3.290318	 0.149772	-5.211091	-14.515670	-7.808930	-8.392157	-1.015597	 0.072754	-8.194946	-4.264462	 0.176922	-4.749312	-31.365000	-15.537720	-87.692420	-1.172614	 0.916762	-76.036380	-0.696422	 0.216859	-34.592510	-20.540710	-9.531278	-87.028400	 2.070703	-1.904773	-85.218980	 0.550545	-0.138289	-28.200420	 68.144790	 55.800360	-30.041080	-1.535612	-0.102854	 7.662614	-0.012975	 0.000058	-0.394369
 0.138052	-0.077609	 0.768490	 100.919400	 18.363550	 46.194980	 10.578850	 1.267671	 7.209508	-1.586755	 0.132379	-3.207878	-4.374354	 0.384470	-10.040980	-3.263799	 0.147581	-5.176685	-14.507090	-7.814953	-8.253572	-1.040990	 0.074799	-8.220030	-4.225241	 0.176271	-4.775512	-31.398140	-15.507070	-87.619090	-1.176578	 0.919714	-76.027670	-0.668631	 0.208336	-34.612650	-20.572130	-9.501418	-86.852040	 2.055016	-1.889406	-85.190630	 0.568033	-0.143127	-28.284760	 67.895170	 56.002950	-29.522800	-1.562775	-0.100989	 7.392871	 0.069248	-0.000319	-0.504637
 0.138052	-0.077506	 0.768276	 100.998100	 18.286950	 46.187460	 10.545930	 1.269781	 7.221595	-1.557638	 0.129025	-3.230774	-4.355693	 0.384728	-10.090500	-3.218181	 0.145992	-5.193526	-14.529770	-7.813095	-8.233501	-1.069375	 0.077767	-8.318519	-4.163102	 0.172595	-4.745975	-31.405940	-15.506300	-87.532740	-1.166881	 0.911493	-75.988430	-0.651331	 0.202737	-34.579720	-20.604160	-9.474941	-86.636280	 2.017381	-1.852993	-85.135010	 0.596752	-0.150760	-28.356600	 67.906910	 56.054900	-29.337770	-1.539411	-0.097175	 7.223026	 0.089511	-0.000484	-0.619083
 0.138045	-0.077360	 0.768068	 101.051500	 18.230790	 46.190440	 10.516520	 1.276114	 7.257805	-1.521489	 0.125455	-3.356870	-4.346069	 0.384520	-10.107330	-3.179892	 0.146202	-5.263714	-14.521590	-7.817424	-8.186646	-1.080151	 0.078891	-8.354372	-4.148427	 0.172210	-4.752075	-31.422640	-15.495810	-87.459760	-1.185922	 0.926823	-76.016330	-0.657538	 0.204743	-34.591380	-20.634530	-9.447884	-86.508310	 1.967813	-1.808176	-85.157280	 0.613676	-0.154825	-28.319080	 67.912180	 56.081070	-29.240470	-1.553902	-0.097951	 7.213137	 0.083123	-0.000458	-0.633849
 0.138060	-0.077216	 0.767870	 101.095800	 18.188530	 46.197490	 10.490140	 1.287981	 7.325641	-1.486503	 0.122634	-3.499834	-4.335231	 0.384668	-10.136490	-3.150304	 0.145229	-5.277727	-14.518110	-7.820292	-8.143429	-1.084871	 0.079639	-8.397284	-4.138591	 0.172377	-4.768041	-31.459930	-15.466630	-87.342220	-1.194347	 0.933693	-76.032840	-0.627178	 0.195769	-34.669880	-20.643510	-9.443667	-86.369940	 1.958136	-1.800310	-85.189850	 0.645096	-0.162689	-28.308760	 67.856690	 56.140240	-29.069990	-1.603783	-0.099258	 7.083038	 0.134618	-0.000856	-0.718429
 0.138060	-0.077216	 0.767870	 101.095800	 18.188530	 46.197490	 10.490120	 1.287979	 7.325672	-1.486486	 0.122638	-3.499876	-4.335228	 0.384665	-10.136500	-3.150292	 0.145233	-5.277722	-14.518100	-7.820288	-8.143439	-1.084866	 0.079645	-8.397287	-4.138602	 0.172376	-4.768051	-31.459930	-15.466620	-87.342200	-1.194348	 0.933690	-76.032840	-0.627171	 0.195766	-34.669900	-20.643500	-9.443659	-86.369940	 1.958139	-1.800304	-85.189850	 0.645103	-0.162693	-28.308750	 67.856700	 56.140240	-29.069970	-1.603783	-0.099258	 7.083025	 0.134619	-0.000852	-0.718451
 0.138020	-0.077134	 0.767708	 101.134400	 18.173440	 46.224560	 10.472620	 1.297562	 7.380476	-1.472214	 0.121195	-3.600454	-4.334105	 0.386038	-10.174970	-3.115600	 0.143910	-5.287967	-14.522170	-7.817439	-8.219128	-1.085177	 0.079993	-8.431523	-4.129203	 0.172856	-4.792294	-31.467240	-15.469790	-87.218370	-1.203253	 0.941058	-76.056920	-0.581668	 0.181675	-34.690440	-20.646170	-9.445608	-86.271680	 1.944247	-1.788451	-85.219090	 0.681906	-0.171827	-28.286660	 67.786160	 56.188820	-28.945930	-1.632160	-0.100724	 7.061545	 0.146318	-0.000981	-0.763434
 0.138063	-0.076985	 0.767564	 101.170200	 18.153010	 46.228020	 10.445020	 1.305578	 7.426388	-1.451043	 0.120464	-3.712222	-4.343187	 0.388390	-10.215260	-3.075264	 0.142248	-5.295480	-14.474820	-7.823128	-8.239422	-1.090428	 0.080796	-8.475395	-4.140961	 0.173140	-4.786406	-31.516980	-15.425920	-87.111660	-1.242504	 0.972383	-76.092780	-0.558660	 0.174546	-34.699730	-20.696020	-9.393675	-86.203310	 1.897248	-1.746994	-85.277340	 0.696975	-0.175480	-28.263480	 67.640570	 56.270590	-28.757880	-1.643392	-0.100981	 7.032156	 0.176903	-0.001229	-0.790206
 0.138063	-0.076985	 0.767564	 101.170200	 18.153010	 46.228030	 10.445020	 1.305582	 7.426385	-1.451040	 0.120463	-3.712212	-4.343195	 0.388388	-10.215270	-3.075265	 0.142246	-5.295479	-14.474830	-7.823138	-8.239408	-1.090423	 0.080801	-8.475404	-4.140954	 0.173140	-4.786406	-31.516980	-15.425920	-87.111650	-1.242507	 0.972389	-76.092770	-0.558655	 0.174542	-34.699710	-20.696020	-9.393676	-86.203290	 1.897242	-1.746998	-85.277350	 0.696971	-0.175479	-28.263470	 67.640560	 56.270620	-28.757870	-1.643405	-0.100995	 7.032156	 0.176917	-0.001223	-0.790201
